# xmcd CD database file
#
# Track frame offsets:
#	150
#	10686
#	20640
#	43703
#	55693
#	73082
#	86629
#	101583
#	115804
#	129238
#	144980
#
# Disc length: 2152 seconds
#
# Revision: 0
# Processed by: cddbd v1.5.2PL0 Copyright (c) Steve Scherf et al.
# Submitted via: CDex 1.51
#
DISCID=8b08660b
DTITLE=Jim Stafford - Jim Stafford
DYEAR=1974
DGENRE=Country
TTITLE0=L.A. Mamma
TTITLE1=I Ain't Sharin' Sharon
TTITLE2=Mr. Bojangles/A Visit With An Old Friend
TTITLE3=Wildwood Weed
TTITLE4=16 Little Red Noses And A Horse That Sweats
TTITLE5=Spiders And Snakes
TTITLE6=Last Chant
TTITLE7=My Girl Bill
TTITLE8=Nifty Fifties Blues
TTITLE9=Real Good Time
TTITLE10=Swamp Witch
EXTD=YEAR: 1974
EXTT0=
EXTT1=
EXTT2=
EXTT3=
EXTT4=
EXTT5=
EXTT6=
EXTT7=
EXTT8=
EXTT9=
EXTT10=
PLAYORDER=
